<?xml version="1.0" encoding="utf-8"?>
<!-- Generator: Adobe Illustrator 16.0.0, SVG Export Plug-In . SVG Version: 6.00 Build 0)  -->
<!DOCTYPE svg PUBLIC "-//W3C//DTD SVG 1.1//EN" "http://www.w3.org/Graphics/SVG/1.1/DTD/svg11.dtd">
<svg version="1.1" id="Layer_1" xmlns="http://www.w3.org/2000/svg" xmlns:xlink="http://www.w3.org/1999/xlink" x="0px" y="0px"
	 width="40px" height="40px" viewBox="0 0 40 40" style="enable-background:new 0 0 40 40;" xml:space="preserve">
<style type="text/css">
<![CDATA[
	.st0{fill:#CB90FF;}
	.st1{fill:#393568;}
]]>
</style>
<g id="_x31_">
	<circle class="st1" cx="20" cy="20" r="20"/>
	<g>
		<path class="st0" d="M11.1,23.1l-1.5,5H6.2l5.7-17.7H16l5.8,17.7h-3.5l-1.6-5H11.1z M16.2,20.6l-1.4-4.4c-0.3-1.1-0.6-2.3-0.9-3.3
			h-0.1c-0.3,1-0.5,2.3-0.8,3.3l-1.4,4.4H16.2z"/>
		<path class="st0" d="M26.1,22.6c0.1,2.3,1.9,3.3,3.9,3.3c1.5,0,2.6-0.2,3.6-0.6l0.5,2.2c-1.1,0.4-2.6,0.8-4.5,0.8
			c-4.2,0-6.6-2.6-6.6-6.5c0-3.6,2.2-6.9,6.3-6.9c4.2,0,5.5,3.4,5.5,6.2c0,0.6-0.1,1.1-0.1,1.4L26.1,22.6L26.1,22.6z M31.7,20.3
			c0-1.2-0.5-3.1-2.7-3.1c-2,0-2.8,1.8-3,3.1H31.7z"/>
	</g>
</g>
</svg>
