<?xml version="1.0" encoding="utf-8"?>
<!-- Generator: Adobe Illustrator 16.0.0, SVG Export Plug-In . SVG Version: 6.00 Build 0)  -->
<!DOCTYPE svg PUBLIC "-//W3C//DTD SVG 1.1//EN" "http://www.w3.org/Graphics/SVG/1.1/DTD/svg11.dtd">
<svg version="1.1" id="Layer_1" xmlns="http://www.w3.org/2000/svg" xmlns:xlink="http://www.w3.org/1999/xlink" x="0px" y="0px"
	 width="40px" height="40px" viewBox="0 0 40 40" style="enable-background:new 0 0 40 40;" xml:space="preserve">
<style type="text/css">
<![CDATA[
	.st0{fill:#594721;}
	.st1{fill:#FFB650;}
]]>
</style>
<g id="_x31_">
	<circle class="st0" cx="20" cy="20" r="20"/>
	<g>
		<path class="st1" d="M13.3,23.1l-1.5,5H8.4l5.7-17.7h4.1L24,28.1h-3.5l-1.6-5H13.3z M18.4,20.6L17,16.2c-0.3-1.1-0.6-2.3-0.9-3.3
			H16c-0.3,1-0.5,2.3-0.8,3.3l-1.4,4.4H18.4z"/>
		<path class="st1" d="M29.6,11.7c0,1-0.7,1.7-1.8,1.7c-1.1,0-1.8-0.8-1.8-1.7c0-1,0.7-1.8,1.8-1.8C28.9,9.9,29.6,10.7,29.6,11.7z
			 M26.2,28.1V15.3h3.3v12.8H26.2z"/>
	</g>
</g>
</svg>
