<?xml version="1.0" encoding="utf-8"?>
<!-- Generator: Adobe Illustrator 16.0.0, SVG Export Plug-In . SVG Version: 6.00 Build 0)  -->
<!DOCTYPE svg PUBLIC "-//W3C//DTD SVG 1.1//EN" "http://www.w3.org/Graphics/SVG/1.1/DTD/svg11.dtd">
<svg version="1.1" id="Layer_1" xmlns="http://www.w3.org/2000/svg" xmlns:xlink="http://www.w3.org/1999/xlink" x="0px" y="0px"
	 width="40px" height="40.3px" viewBox="0 0 40 40.3" style="enable-background:new 0 0 40 40.3;" xml:space="preserve">
<style type="text/css">
<![CDATA[
	.st0{fill:#1465D2;}
	.st1{fill:#FFFFFF;}
]]>
</style>
<g id="_x31_">
	<circle class="st0" cx="20" cy="20.2" r="20"/>
	<path class="st1" d="M17.6,19.4c0,0,2.4-0.4,2.4-3.3s-2-4.2-4.4-4.2H7.5v16.6h8.2c0,0,4.9-0.2,4.9-5.2
		C20.6,23.4,20.7,19.4,17.6,19.4L17.6,19.4z M11.1,14.9h4.5c0,0,1.1,0.1,1.1,1.8c0,1.7-0.7,1.8-1.4,1.8h-4.2V14.9L11.1,14.9z
		 M15.3,25.6H11v-4.8h4.5c0,0,1.7,0.1,1.7,2.4C17.3,25.1,16,25.5,15.3,25.6L15.3,25.6z M27.2,16.1c-6,0-6,6.2-6,6.2s-0.4,6.3,6,6.3
		c0,0,5.3,0,5.3-4.2h-2.8c0,0,0.1,1.6-2.5,1.6c0,0-2.8,0.2-2.8-2.8h8.1C32.5,23.2,33.4,16.1,27.2,16.1L27.2,16.1z M29.5,20.8h-5.1
		c0,0,0.3-2.4,2.7-2.4C29.5,18.4,29.5,20.8,29.5,20.8L29.5,20.8z M30.1,13.1h-6.6v1.8h6.6V13.1L30.1,13.1z"/>
</g>
</svg>
