<?xml version="1.0" encoding="utf-8"?>
<!-- Generator: Adobe Illustrator 16.0.0, SVG Export Plug-In . SVG Version: 6.00 Build 0)  -->
<!DOCTYPE svg PUBLIC "-//W3C//DTD SVG 1.1//EN" "http://www.w3.org/Graphics/SVG/1.1/DTD/svg11.dtd">
<svg version="1.1" id="Layer_1" xmlns="http://www.w3.org/2000/svg" xmlns:xlink="http://www.w3.org/1999/xlink" x="0px" y="0px"
	 width="40px" height="40px" viewBox="0 0 40 40" style="enable-background:new 0 0 40 40;" xml:space="preserve">
<style type="text/css">
<![CDATA[
	.st0{fill:#FFFFFF;}
	.st1{fill:#33A9DC;}
]]>
</style>
<g id="_x31_">
	<circle class="st1" cx="20" cy="20" r="20"/>
	<g>
		<path class="st0" d="M17.4,13.7c-0.3,0.1-0.8,0.3-1.5,0.3c-1.9,0-3-1.2-3-3c0-1.9,1.4-3.1,3.2-3.1c0.7,0,1.2,0.1,1.4,0.3L17.2,9
			c-0.3-0.1-0.7-0.2-1.2-0.2c-1.2,0-2.1,0.8-2.1,2.2c0,1.3,0.8,2.1,2.1,2.1c0.4,0,0.9-0.1,1.2-0.2L17.4,13.7z"/>
		<path class="st0" d="M18.3,12.7c0.4,0.2,0.9,0.4,1.4,0.4c0.7,0,1.1-0.3,1.1-0.8c0-0.4-0.3-0.7-1.1-1c-1-0.4-1.6-0.9-1.6-1.7
			c0-1,0.8-1.7,2.1-1.7c0.6,0,1.1,0.1,1.4,0.3L21.4,9c-0.2-0.1-0.6-0.3-1.2-0.3c-0.7,0-1,0.4-1,0.7c0,0.5,0.3,0.7,1.1,1
			c1,0.4,1.5,0.9,1.5,1.8c0,0.9-0.7,1.8-2.2,1.8c-0.6,0-1.3-0.2-1.6-0.4L18.3,12.7z"/>
		<path class="st0" d="M22.9,12.7c0.4,0.2,0.9,0.4,1.4,0.4c0.7,0,1.1-0.3,1.1-0.8c0-0.4-0.3-0.7-1.1-1c-1-0.4-1.6-0.9-1.6-1.7
			c0-1,0.8-1.7,2.1-1.7c0.6,0,1.1,0.1,1.4,0.3L26,9c-0.2-0.1-0.6-0.3-1.2-0.3c-0.7,0-1,0.4-1,0.7c0,0.5,0.3,0.7,1.1,1
			c1,0.4,1.5,0.9,1.5,1.8c0,0.9-0.7,1.8-2.2,1.8c-0.6,0-1.3-0.2-1.6-0.4L22.9,12.7z"/>
	</g>
	<g>
		<polygon class="st0" points="13.6,16.8 13,19.9 25.5,19.9 25.1,21.9 12.6,21.9 12,25 24.5,25 23.8,28.5 18.7,30.2 14.4,28.5 
			14.7,27 11.6,27 10.8,30.7 18.1,33.5 26.4,30.7 29.2,16.8 		"/>
	</g>
</g>
</svg>
