<?xml version="1.0" encoding="utf-8"?>
<!-- Generator: Adobe Illustrator 16.0.0, SVG Export Plug-In . SVG Version: 6.00 Build 0)  -->
<!DOCTYPE svg PUBLIC "-//W3C//DTD SVG 1.1//EN" "http://www.w3.org/Graphics/SVG/1.1/DTD/svg11.dtd">
<svg version="1.1" id="Layer_1" xmlns="http://www.w3.org/2000/svg" xmlns:xlink="http://www.w3.org/1999/xlink" x="0px" y="0px"
	 width="40.3px" height="39.3px" viewBox="0 0 40.3 39.3" style="enable-background:new 0 0 40.3 39.3;" xml:space="preserve">
<g id="_x31_">
	<g>
		<path d="M37.6,10c-1.8-3.1-4.2-5.5-7.3-7.3C27.1,0.9,23.8,0,20.1,0s-7,0.9-10.1,2.7C6.9,4.5,4.5,6.9,2.7,10
			C0.9,13.1,0,16.5,0,20.1c0,4.4,1.3,8.3,3.8,11.8c2.6,3.5,5.9,5.9,9.9,7.3c0.5,0.1,0.8,0,1-0.2c0.2-0.2,0.3-0.5,0.3-0.8
			c0-0.1,0-0.5,0-1.4s0-1.7,0-2.3l-0.6,0.1c-0.4,0.1-0.9,0.1-1.5,0.1s-1.2-0.1-1.8-0.2c-0.6-0.1-1.2-0.4-1.8-0.8
			c-0.5-0.4-0.9-0.9-1.2-1.6l-0.3-0.6c-0.2-0.4-0.4-0.8-0.8-1.3s-0.8-0.8-1.1-1l-0.2-0.1c-0.1-0.1-0.2-0.2-0.3-0.3s-0.2-0.2-0.2-0.4
			c-0.1-0.1,0-0.2,0.1-0.3C5.6,28,5.9,28,6.2,28h0.6c0.4,0.1,0.8,0.3,1.3,0.6C8.6,29,9,29.5,9.3,30c0.4,0.7,0.9,1.3,1.5,1.6
			c0.6,0.4,1.1,0.6,1.7,0.6s1.1,0,1.5-0.1s0.8-0.2,1.2-0.4c0.2-1.2,0.6-2.1,1.3-2.7c-1-0.1-1.9-0.3-2.7-0.5c-0.8-0.2-1.6-0.6-2.5-1
			c-0.8-0.5-1.6-1.1-2.1-1.8c-0.6-0.7-1-1.6-1.4-2.8c-0.4-1.1-0.5-2.4-0.5-3.9c0-2.1,0.7-3.9,2.1-5.4C8.8,12,8.8,10.2,9.6,8.3
			c0.5-0.2,1.3,0,2.3,0.4c1,0.4,1.7,0.7,2.2,1c0.5,0.3,0.8,0.5,1.1,0.7c1.6-0.5,3.3-0.7,5-0.7c1.7,0,3.4,0.2,5,0.7l1-0.6
			c0.7-0.4,1.5-0.8,2.4-1.2c0.9-0.3,1.6-0.4,2.1-0.3c0.8,2,0.9,3.8,0.2,5.3c1.4,1.5,2.1,3.3,2.1,5.4c0,1.5-0.2,2.8-0.5,3.9
			c-0.4,1.1-0.8,2.1-1.4,2.8c-0.6,0.7-1.3,1.3-2.1,1.7c-0.8,0.5-1.7,0.8-2.5,1c-0.8,0.2-1.7,0.4-2.7,0.5c0.9,0.8,1.4,2,1.4,3.7v5.5
			c0,0.3,0.1,0.6,0.3,0.8c0.2,0.2,0.6,0.3,1,0.2c4.1-1.3,7.4-3.8,9.9-7.3c2.6-3.5,3.8-7.4,3.8-11.8C40.3,16.5,39.4,13.1,37.6,10z"/>
	</g>
</g>
</svg>
