<?xml version="1.0" encoding="utf-8"?>
<!-- Generator: Adobe Illustrator 16.0.0, SVG Export Plug-In . SVG Version: 6.00 Build 0)  -->
<!DOCTYPE svg PUBLIC "-//W3C//DTD SVG 1.1//EN" "http://www.w3.org/Graphics/SVG/1.1/DTD/svg11.dtd">
<svg version="1.1" id="Layer_1" xmlns="http://www.w3.org/2000/svg" xmlns:xlink="http://www.w3.org/1999/xlink" x="0px" y="0px"
	 width="40px" height="40px" viewBox="0 0 40 40" style="enable-background:new 0 0 40 40;" xml:space="preserve">
<style type="text/css">
<![CDATA[
	.st0{fill:#F16529;}
	.st1{fill:#FFFFFF;}
]]>
</style>
<g id="_x31_">
	<circle class="st0" cx="20" cy="20" r="20"/>
	<g>
		<path class="st1" d="M12.5,16.8l1.4,15.3l6.1,1.7l6.1-1.7l1.4-15.3H12.5z M24.5,21.8h-7.2l0.2,1.9h6.8l-0.5,5.8L20,30.6l0,0l0,0
			l-3.8-1.1l-0.2-3h1.9L18,28l2.1,0.6l2.1-0.6l0.2-2.4h-6.5L15.3,20h9.4L24.5,21.8z"/>
	</g>
	<g>
		<path class="st1" d="M10.9,7.9v2.4h2.5V7.9h1.1v5.9h-1.1v-2.6h-2.5v2.6H9.8V7.9H10.9z"/>
		<path class="st1" d="M16.8,8.8h-1.7V7.9h4.5v0.9h-1.7v5h-1.1V8.8z"/>
		<path class="st1" d="M25.3,11.4c0-0.8-0.1-1.7-0.1-2.5l0,0c-0.2,0.7-0.4,1.5-0.7,2.3l-0.9,2.6h-0.8L22,11.2
			c-0.2-0.8-0.4-1.6-0.6-2.3l0,0c0,0.8-0.1,1.7-0.1,2.5l-0.1,2.4h-1l0.4-5.9H22l0.8,2.4c0.2,0.7,0.4,1.4,0.5,2.1l0,0
			c0.2-0.6,0.4-1.4,0.6-2.1l0.8-2.4h1.4l0.3,5.9h-1.1V11.4z"/>
		<path class="st1" d="M27.5,7.9h1.1v5H31v0.9h-3.5V7.9z"/>
	</g>
</g>
</svg>
