<?xml version="1.0" encoding="utf-8"?>
<!-- Generator: Adobe Illustrator 16.0.0, SVG Export Plug-In . SVG Version: 6.00 Build 0)  -->
<!DOCTYPE svg PUBLIC "-//W3C//DTD SVG 1.1//EN" "http://www.w3.org/Graphics/SVG/1.1/DTD/svg11.dtd">
<svg version="1.1" id="Layer_1" xmlns="http://www.w3.org/2000/svg" xmlns:xlink="http://www.w3.org/1999/xlink" x="0px" y="0px"
	 width="40px" height="40px" viewBox="0 0 40 40" style="enable-background:new 0 0 40 40;" xml:space="preserve">
<style type="text/css">
<![CDATA[
	.st0{fill:#FDDA3E;}
	.st1{fill:#FFFFFF;}
]]>
</style>
<g id="_x31_">
	<circle class="st0" cx="20" cy="20" r="20"/>
	<g>
		<path class="st1" d="M15.3,10.3h3.2v11.5c0,4.9-2.4,6.5-5.9,6.5c-0.9,0-2-0.2-2.7-0.4l0.4-2.6c0.5,0.2,1.2,0.3,2,0.3
			c1.8,0,3-0.8,3-3.9V10.3z"/>
		<path class="st1" d="M21.8,25.1c0.7,0.4,2.1,0.9,3.3,0.9c1.4,0,2.1-0.6,2.1-1.4c0-0.9-0.5-1.3-2.1-1.9c-2.5-0.9-3.6-2.2-3.5-3.7
			c0-2.3,1.9-4,4.8-4c1.4,0,2.7,0.4,3.4,0.8L29.1,18c-0.6-0.3-1.6-0.7-2.7-0.7c-1.2,0-1.8,0.6-1.8,1.3c0,0.8,0.6,1.2,2.2,1.8
			c2.3,0.8,3.4,2,3.4,3.9c0,2.3-1.8,4-5.2,4c-1.6,0-2.9-0.4-3.9-0.9L21.8,25.1z"/>
	</g>
</g>
</svg>
