<?xml version="1.0" encoding="utf-8"?>
<!-- Generator: Adobe Illustrator 16.0.0, SVG Export Plug-In . SVG Version: 6.00 Build 0)  -->
<!DOCTYPE svg PUBLIC "-//W3C//DTD SVG 1.1//EN" "http://www.w3.org/Graphics/SVG/1.1/DTD/svg11.dtd">
<svg version="1.1" id="Layer_1" xmlns="http://www.w3.org/2000/svg" xmlns:xlink="http://www.w3.org/1999/xlink" x="0px" y="0px"
	 width="40px" height="40px" viewBox="0 0 40 40" style="enable-background:new 0 0 40 40;" xml:space="preserve">
<style type="text/css">
<![CDATA[
	.st0{fill:#1D74A6;}
	.st1{fill:#FFFFFF;}
]]>
</style>
<g id="_x31_">
	<circle class="st0" cx="20" cy="20" r="20"/>
	<path class="st1" d="M12.5,14.4c-1.4,0-2.4-0.9-2.4-2.1c0-1.2,0.9-2.1,2.4-2.1s2.3,0.9,2.4,2.1C14.9,13.5,14,14.4,12.5,14.4
		L12.5,14.4z M14.4,29.9h-3.8V16.3h3.8V29.9L14.4,29.9z M26.1,29.9V22c0-1.7-1.1-2.9-2.6-2.9c-1.2,0-2.1,0.8-2.4,1.6
		c-0.1,0.2-0.1,0.6-0.1,1v8.2h-3.8V16.3h3.4l0.3,1.5c0.6-0.9,2.1-2,4.4-2c2.8,0,4.7,1.6,4.7,5.6v8.5H26.1L26.1,29.9z"/>
</g>
</svg>
