<?xml version="1.0" encoding="utf-8"?>
<!-- Generator: Adobe Illustrator 16.0.0, SVG Export Plug-In . SVG Version: 6.00 Build 0)  -->
<!DOCTYPE svg PUBLIC "-//W3C//DTD SVG 1.1//EN" "http://www.w3.org/Graphics/SVG/1.1/DTD/svg11.dtd">
<svg version="1.1" id="Layer_1" xmlns="http://www.w3.org/2000/svg" xmlns:xlink="http://www.w3.org/1999/xlink" x="0px" y="0px"
	 width="40px" height="40px" viewBox="0 0 40 40" style="enable-background:new 0 0 40 40;" xml:space="preserve">
<style type="text/css">
<![CDATA[
	.st0{fill:#C2DCE9;}
	.st1{fill:#2F3146;}
]]>
</style>
<g id="_x31_">
	<circle class="st1" cx="20" cy="20" r="20"/>
	<g>
		<path class="st0" d="M10.7,10.3H14v15h7.3V28H10.7V10.3z"/>
		<path class="st0" d="M23.6,19.4c0-1.7,0-3-0.1-4.1h2.8l0.1,2.4h0.1c0.6-1.8,2.1-2.7,3.5-2.7c0.3,0,0.5,0,0.8,0.1v3.1
			c-0.3-0.1-0.6-0.1-0.9-0.1c-1.6,0-2.6,1-2.9,2.4c-0.1,0.3-0.1,0.6-0.1,1v6.6h-3.2v-8.7H23.6z"/>
	</g>
</g>
</svg>
