<?xml version="1.0" encoding="utf-8"?>
<!-- Generator: Adobe Illustrator 16.0.0, SVG Export Plug-In . SVG Version: 6.00 Build 0)  -->
<!DOCTYPE svg PUBLIC "-//W3C//DTD SVG 1.1//EN" "http://www.w3.org/Graphics/SVG/1.1/DTD/svg11.dtd">
<svg version="1.1" id="Layer_1" xmlns="http://www.w3.org/2000/svg" xmlns:xlink="http://www.w3.org/1999/xlink" x="0px" y="0px"
	 width="40px" height="40px" viewBox="0 0 40 40" style="enable-background:new 0 0 40 40;" xml:space="preserve">
<style type="text/css">
<![CDATA[
	.st0{fill:#6082BB;}
	.st1{fill:#FFFFFF;}
]]>
</style>
<circle class="st0" cx="20" cy="20" r="20"/>
<g>
	<path class="st1" d="M6.5,27.2l1.6-8.6c0.2-1,0.4-2.2,0.5-3.1h1.8l-0.2,1.4h0c0.7-1,1.7-1.6,2.8-1.6c1.8,0,2.6,1.5,2.6,3.1
		c0,2.9-2,5.6-4.9,5.6c-0.8,0-1.4-0.2-1.7-0.4h0l-0.7,3.6H6.5z M9.5,22c0.3,0.3,0.8,0.4,1.3,0.4c1.5,0,2.8-2.1,2.8-3.9
		c0-0.8-0.3-1.6-1.3-1.6c-1,0-2.1,1.1-2.5,3.1L9.5,22z"/>
	<path class="st1" d="M16.6,23.8l2.3-12.2h2l-1,5.1h0c0.7-0.9,1.6-1.4,2.8-1.4c1.1,0,2.1,0.7,2.1,2.2c0,0.4-0.1,1-0.1,1.5l-0.9,4.8
		h-2l0.9-4.7c0.1-0.3,0.1-0.7,0.1-1.1c0-0.6-0.3-1.1-1-1.1c-1,0-2.1,1.2-2.4,2.9l-0.8,4H16.6z"/>
	<path class="st1" d="M25.3,27.2l1.6-8.6c0.2-1,0.4-2.2,0.5-3.1h1.8L29,16.8h0c0.7-1,1.8-1.6,2.8-1.6c1.8,0,2.6,1.5,2.6,3.1
		c0,2.9-2,5.6-4.9,5.6c-0.8,0-1.4-0.2-1.7-0.4h0l-0.7,3.6H25.3z M28.3,22c0.3,0.3,0.8,0.4,1.3,0.4c1.5,0,2.8-2.1,2.8-3.9
		c0-0.8-0.3-1.6-1.3-1.6c-1,0-2.1,1.1-2.5,3.1L28.3,22z"/>
</g>
</svg>
