<?xml version="1.0" encoding="utf-8"?>
<!-- Generator: Adobe Illustrator 16.0.0, SVG Export Plug-In . SVG Version: 6.00 Build 0)  -->
<!DOCTYPE svg PUBLIC "-//W3C//DTD SVG 1.1//EN" "http://www.w3.org/Graphics/SVG/1.1/DTD/svg11.dtd">
<svg version="1.1" id="Layer_1" xmlns="http://www.w3.org/2000/svg" xmlns:xlink="http://www.w3.org/1999/xlink" x="0px" y="0px"
	 width="40px" height="40px" viewBox="0 0 40 40" style="enable-background:new 0 0 40 40;" xml:space="preserve">
<style type="text/css">
<![CDATA[
	.st0{fill:#8DC2F8;}
	.st1{fill:#393476;}
]]>
</style>
<g id="_x31_">
	<circle class="st1" cx="20" cy="20" r="20"/>
	<g>
		<path class="st0" d="M9.5,10.6c1.2-0.2,2.8-0.4,4.9-0.4c2.4,0,4.1,0.5,5.2,1.4s1.7,2.3,1.7,3.9c0,1.7-0.5,3.1-1.5,4
			c-1.3,1.3-3.3,1.9-5.6,1.9c-0.6,0-1.2,0-1.6-0.1V28H9.5V10.6z M12.7,18.8c0.4,0.1,0.9,0.1,1.6,0.1c2.4,0,3.9-1.2,3.9-3.3
			c0-2-1.4-3-3.6-3c-0.9,0-1.5,0.1-1.9,0.2V18.8z"/>
		<path class="st0" d="M23.4,25.1c0.7,0.4,2.1,0.9,3.3,0.9c1.4,0,2.1-0.6,2.1-1.4c0-0.9-0.5-1.3-2.1-1.9c-2.5-0.9-3.6-2.2-3.5-3.7
			c0-2.3,1.9-4,4.8-4c1.4,0,2.7,0.4,3.4,0.8L30.7,18c-0.6-0.3-1.6-0.7-2.7-0.7c-1.2,0-1.8,0.6-1.8,1.3c0,0.8,0.6,1.2,2.2,1.8
			c2.3,0.8,3.4,2,3.4,3.9c0,2.3-1.8,4-5.2,4c-1.6,0-2.9-0.4-3.9-0.9L23.4,25.1z"/>
	</g>
</g>
</svg>
