<?xml version="1.0" encoding="utf-8"?>
<!-- Generator: Adobe Illustrator 16.0.0, SVG Export Plug-In . SVG Version: 6.00 Build 0)  -->
<!DOCTYPE svg PUBLIC "-//W3C//DTD SVG 1.1//EN" "http://www.w3.org/Graphics/SVG/1.1/DTD/svg11.dtd">
<svg version="1.1" id="Layer_1" xmlns="http://www.w3.org/2000/svg" xmlns:xlink="http://www.w3.org/1999/xlink" x="0px" y="0px"
	 width="40px" height="40px" viewBox="0 0 40 40" style="enable-background:new 0 0 40 40;" xml:space="preserve">
<style type="text/css">
<![CDATA[
	.st0{fill:#C94137;}
	.st1{fill:#FFFFFF;}
]]>
</style>
<g id="_x31_">
	<circle class="st0" cx="20" cy="20" r="20"/>
	<path class="st1" d="M32.3,20.1c0,3.4-0.6,6.8-1.8,7.7c-1.4,1-8,1-10.4,1c-2.5,0-8.8,0-10.2-0.8c-1.3-0.8-2-4.3-2.1-7.8l0,0l0,0
		c0.1-3.5,0.8-7.2,2.1-8c1.4-0.9,7.7-0.9,10.2-0.9c2.4,0,9.1,0,10.4,1C31.7,13.1,32.3,16.7,32.3,20.1L32.3,20.1L32.3,20.1L32.3,20.1
		L32.3,20.1L32.3,20.1z M17.7,15.4v9.3l7-4.7L17.7,15.4L17.7,15.4z"/>
</g>
</svg>
