<?xml version="1.0" standalone="no"?>
<!DOCTYPE svg PUBLIC "-//W3C//DTD SVG 20010904//EN"
 "http://www.w3.org/TR/2001/REC-SVG-20010904/DTD/svg10.dtd">
<svg version="1.0" xmlns="http://www.w3.org/2000/svg"
 width="1913.000000pt" height="1913.000000pt" viewBox="0 0 1913.000000 1913.000000"
 preserveAspectRatio="xMidYMid meet">
<metadata>
Created by potrace 1.11, written by Peter Selinger 2001-2013
</metadata>
<g transform="translate(0.000000,1913.000000) scale(0.100000,-0.100000)"
fill="#000000" stroke="none">
<path d="M13049 12506 c-2 -2 -48 -7 -102 -10 -84 -5 -199 -19 -357 -42 -19
-3 -53 -9 -75 -14 -22 -5 -53 -11 -70 -14 -249 -45 -624 -173 -910 -312 -194
-94 -480 -267 -640 -388 -27 -21 -63 -47 -79 -59 -34 -25 -195 -158 -245 -202
-170 -148 -404 -387 -566 -575 -49 -58 -92 -107 -95 -110 -3 -3 -23 -27 -45
-55 -22 -27 -46 -56 -53 -64 -7 -7 -86 -111 -175 -230 -168 -223 -259 -351
-463 -651 -132 -194 -126 -184 -207 -303 -78 -117 -207 -288 -280 -372 -89
-103 -309 -320 -412 -407 -300 -251 -669 -469 -1020 -600 -44 -17 -89 -34
-100 -39 -126 -52 -518 -143 -702 -163 -102 -11 -149 -16 -213 -21 -74 -6
-415 -7 -475 -1 -22 3 -69 7 -105 10 -121 11 -238 27 -370 51 -41 8 -86 16
-100 19 -61 10 -320 80 -432 115 -604 193 -1207 514 -1828 975 -74 55 -137
102 -140 106 -3 3 -25 21 -50 40 -51 39 -250 202 -295 241 -452 395 -702 659
-892 944 -202 303 -277 570 -220 788 75 292 384 508 884 617 54 12 114 24 133
26 19 2 58 8 85 14 211 39 708 47 946 14 20 -2 59 -7 85 -9 56 -6 104 -12 189
-25 33 -5 78 -12 100 -15 39 -6 66 -11 115 -19 14 -3 52 -10 85 -15 33 -6 71
-13 85 -16 22 -5 57 -12 149 -30 71 -14 510 -121 551 -134 14 -5 52 -16 85
-25 281 -75 845 -256 1185 -381 573 -209 1311 -516 1685 -700 38 -19 71 -33
73 -31 6 6 -348 227 -613 383 -209 123 -318 184 -492 279 -286 156 -810 410
-1108 537 -139 59 -336 138 -450 182 -38 14 -79 30 -90 35 -187 82 -987 322
-1245 374 -405 81 -522 102 -690 121 -25 3 -54 7 -65 9 -11 2 -58 7 -105 11
-47 4 -96 8 -110 10 -67 8 -311 18 -440 18 -145 1 -430 -11 -453 -18 -7 -2
-41 -7 -77 -10 -98 -10 -107 -12 -215 -29 -55 -9 -116 -21 -135 -26 -19 -5
-46 -11 -60 -14 -98 -17 -362 -104 -475 -156 -133 -61 -163 -76 -240 -123
-351 -214 -574 -496 -662 -836 -33 -130 -37 -172 -37 -341 0 -187 31 -371 88
-530 9 -25 18 -52 21 -60 5 -22 67 -165 102 -235 60 -121 149 -272 218 -370
99 -140 192 -259 310 -395 40 -47 399 -406 450 -450 54 -48 213 -187 250 -219
65 -58 346 -282 460 -366 311 -232 640 -447 960 -626 33 -19 74 -42 90 -51 53
-30 417 -213 490 -245 39 -18 100 -45 138 -62 133 -61 446 -180 637 -244 163
-55 449 -138 517 -151 10 -2 45 -11 78 -19 81 -21 389 -84 450 -93 28 -3 52
-8 55 -9 3 -2 33 -6 65 -10 33 -3 67 -8 76 -11 9 -3 36 -7 60 -9 24 -2 82 -9
129 -15 231 -28 372 -35 700 -35 162 0 340 4 395 8 208 16 253 21 330 32 17 3
48 7 70 10 22 3 65 10 95 15 30 5 71 11 90 14 19 3 46 8 60 11 14 2 50 10 80
16 260 52 627 173 880 291 47 22 101 47 120 56 19 9 94 49 165 90 181 104 343
216 514 357 142 117 360 338 521 530 23 28 51 61 62 73 31 38 298 395 351 469
76 108 237 340 301 433 302 440 485 696 658 915 88 113 323 360 398 420 14 11
48 38 75 60 28 22 55 43 60 48 189 151 555 345 785 417 170 54 368 104 455
115 28 4 53 9 56 11 3 2 34 6 70 9 35 4 70 8 77 10 82 27 739 27 962 0 42 -5
202 -25 245 -31 60 -7 285 -45 297 -49 7 -2 31 -7 53 -10 152 -22 434 -92 613
-151 347 -116 759 -302 1077 -487 66 -38 129 -75 140 -81 33 -19 359 -232 380
-248 6 -5 42 -32 80 -60 221 -163 381 -300 559 -482 259 -265 431 -525 502
-761 23 -76 27 -110 28 -220 1 -113 -2 -140 -23 -205 -36 -109 -84 -184 -175
-276 -76 -76 -211 -174 -283 -205 -18 -8 -33 -17 -33 -21 0 -5 -8 -8 -18 -8
-10 0 -22 -4 -27 -9 -11 -10 -125 -56 -220 -89 -180 -61 -409 -108 -670 -137
-33 -4 -71 -8 -85 -10 -197 -26 -930 -25 -1195 0 -22 2 -80 7 -130 10 -49 3
-103 8 -120 10 -16 1 -61 6 -100 9 -90 8 -163 16 -195 21 -14 2 -50 6 -80 10
-52 6 -271 33 -315 40 -11 1 -47 6 -80 10 -33 4 -67 9 -77 10 -9 2 -38 7 -65
11 -26 3 -57 8 -68 10 -11 3 -36 7 -55 9 -19 3 -51 8 -70 11 -19 4 -46 8 -60
10 -14 1 -41 6 -60 9 -19 4 -46 9 -60 11 -47 8 -85 14 -110 19 -39 8 -189 35
-254 46 -33 5 -62 12 -65 14 -4 2 -27 6 -51 10 -25 3 -63 10 -85 15 -22 5 -56
12 -75 15 -19 3 -42 8 -50 10 -8 2 -29 7 -47 10 -17 3 -85 17 -150 31 -65 14
-129 28 -143 30 -14 3 -115 26 -225 51 -110 24 -209 47 -221 49 -73 14 -860
214 -1019 259 -61 17 -372 105 -400 112 -50 14 4 -10 170 -76 99 -40 189 -76
200 -80 103 -44 557 -218 815 -312 118 -44 224 -83 235 -88 20 -9 103 -39 230
-84 39 -13 108 -38 155 -55 309 -111 1186 -398 1273 -416 7 -2 19 -6 27 -9 74
-30 1042 -288 1166 -311 16 -3 72 -14 124 -26 52 -11 104 -22 115 -24 11 -3
43 -9 70 -15 28 -6 61 -13 75 -15 14 -3 86 -16 160 -30 74 -14 153 -27 175
-31 22 -3 65 -10 95 -15 69 -12 101 -17 170 -25 30 -4 62 -9 70 -10 8 -1 49
-6 90 -10 41 -4 82 -9 90 -10 8 -2 53 -6 100 -10 47 -4 99 -9 115 -10 67 -7
346 -18 435 -18 114 0 376 12 393 18 6 2 43 6 80 9 37 3 78 8 90 10 12 3 40 7
62 10 22 3 51 8 65 11 14 3 41 8 60 11 19 3 43 7 52 10 15 5 25 7 81 19 137
30 462 146 602 216 378 188 630 556 682 997 10 86 10 369 0 447 -13 99 -18
129 -22 145 -2 8 -7 29 -10 47 -22 131 -117 425 -190 588 -408 910 -1265 1756
-2407 2378 -198 108 -668 330 -791 373 -20 7 -52 20 -70 28 -187 84 -680 247
-972 321 -16 5 -34 9 -40 11 -79 20 -296 67 -385 83 -63 12 -124 23 -135 25
-11 2 -42 7 -70 10 -27 4 -79 11 -115 16 -36 5 -96 12 -135 15 -38 4 -86 9
-105 11 -43 6 -616 14 -621 10z"/>
</g>
</svg>
