<?xml version="1.0" encoding="utf-8"?>
<!-- Generator: Adobe Illustrator 16.0.0, SVG Export Plug-In . SVG Version: 6.00 Build 0)  -->
<!DOCTYPE svg PUBLIC "-//W3C//DTD SVG 1.1//EN" "http://www.w3.org/Graphics/SVG/1.1/DTD/svg11.dtd">
<svg version="1.1" id="Layer_1" xmlns="http://www.w3.org/2000/svg" xmlns:xlink="http://www.w3.org/1999/xlink" x="0px" y="0px"
	 width="58px" height="20px" viewBox="0 0 58 20" style="enable-background:new 0 0 58 20;" xml:space="preserve">
<style type="text/css">
<![CDATA[
	.st0{fill-rule:evenodd;clip-rule:evenodd;fill:#7D7D7D;}

@-webkit-keyframes AnimationName {
    0%{transform: scale(1)}
    50%{transform: scale(.8)}
    0%{transform: scale(1)}
}
@-moz-keyframes AnimationName {
    0%{transform: scale(1)}
    50%{transform: scale(.8)}
    0%{transform: scale(1)}
}
@keyframes AnimationName { 
    0%{transform: scale(1)}
    50%{transform: scale(.8)}
    0%{transform: scale(1)}
}

.st0{
    -webkit-animation: AnimationName 3s ease infinite;
-moz-animation: AnimationName 3s ease infinite;
animation: AnimationName 3s ease infinite;
}


]]>
</style>
<path class="st0" d="M24.2,7.7c0,0-7.4-3.6-12.7-4C8.6,3.5,2.2,4.7,10.2,11c8.2,6.5,14.5,3.2,17-0.4c2.6-3.7,6.7-11.4,17.5-7.6
	C55.3,6.6,57.7,15.4,53,17.2c-1.9,0.7-5.6,2.2-20.8-4c0,0,12.9,3.9,18,1.9c5.4-2.1-2.1-7.9-6.9-8.9c-3.1-0.6-7.4-1.1-10.4,2.9
	c-3,4-4.1,6.9-8.6,8.3c-3.6,1.1-11.2,1.2-18.5-5.5C-2.9,3.9,7.8-3,24.2,7.7L24.2,7.7z"/>
<g>
</g>
<g>
</g>
<g>
</g>
<g>
</g>
<g>
</g>
<g>
</g>
<g>
</g>
<g>
</g>
<g>
</g>
<g>
</g>
<g>
</g>
<g>
</g>
<g>
</g>
<g>
</g>
<g>
</g>
</svg>
