<?xml version="1.0" encoding="utf-8"?>
<!-- Generator: Adobe Illustrator 16.0.0, SVG Export Plug-In . SVG Version: 6.00 Build 0)  -->
<!DOCTYPE svg PUBLIC "-//W3C//DTD SVG 1.1//EN" "http://www.w3.org/Graphics/SVG/1.1/DTD/svg11.dtd">
<svg version="1.1" id="Layer_3" xmlns="http://www.w3.org/2000/svg" xmlns:xlink="http://www.w3.org/1999/xlink" x="0px" y="0px"
	 width="486px" height="149.1px" viewBox="0 0 486 149.1" style="enable-background:new 0 0 486 149.1;" xml:space="preserve">
<style type="text/css">
<![CDATA[
 .st0{fill-rule:evenodd;clip-rule:evenodd;fill:#024e82;}

fill: linear-gradient(270deg, #246655, #5cdfbd);

@-webkit-keyframes AnimationName {
    0%{fill#024e82}
    50%{fill:#f8df3b}
    100%{fill:#024e82}
}
@-moz-keyframes AnimationName {
    0%{fill#024e82}
    50%{fill:#f8df3b}
    100%{fill:#024e82}
}
@keyframes AnimationName { 
        0%{fill#024e82}
    50%{fill:#f8df3b}
    100%{fill:#024e82}
}

.st0{
    -webkit-animation: AnimationName 6s ease infinite;
-moz-animation: AnimationName 6s ease infinite;
animation: AnimationName 6s ease infinite;
}

]]>
</style>
<path class="st0" d="M198.5,53.2c0,0-68-33.3-117.6-36.5c-26.8-1.7-85.1,8.8-12,66.9c75.6,60.1,133.7,29.1,156.9-3.7
	C249.9,45.6,288-25.3,387.4,9.2c98.7,34.3,120.9,115.6,77.3,132.1c-17.3,6.5-51.6,20.3-192.4-36.9c0,0,119.7,36.3,166.8,17.7
	c49.6-19.6-19.4-72.6-64-81.9c-28.3-5.9-68.7-10.1-96.3,26.6c-27.6,36.7-37.5,63.7-79.4,76.9C166,154.3,96.3,154.6,28.9,92.7
	C-51.8,18.6,47-45.1,198.5,53.2L198.5,53.2z"/>
</svg>


