<?xml version="1.0" encoding="utf-8"?>
<!-- Generator: Adobe Illustrator 16.0.0, SVG Export Plug-In . SVG Version: 6.00 Build 0)  -->
<!DOCTYPE svg PUBLIC "-//W3C//DTD SVG 1.1//EN" "http://www.w3.org/Graphics/SVG/1.1/DTD/svg11.dtd">
<svg version="1.1" id="Layer_1" xmlns="http://www.w3.org/2000/svg" xmlns:xlink="http://www.w3.org/1999/xlink" x="0px" y="0px"
	 width="487.5px" height="149.8px" viewBox="0 0 487.5 149.8" style="enable-background:new 0 0 487.5 149.8;" xml:space="preserve"
	>
<style type="text/css">
<![CDATA[
	.st0{clip-path:url(#SVGID_3_);}
]]>
</style>
<g>
	
		<image style="overflow:visible;" width="637" height="197" xlink:href="3854B5E6.jpg"  transform="matrix(0.7641 0 0 0.7641 1.1484 -0.7329)">
	</image>
	<g>
		<defs>
			<path id="SVGID_1_" d="M199.6,53.2c0,0-68-33.3-117.6-36.5C55.2,15-3.1,25.5,70,83.6c75.6,60,133.7,29.1,156.9-3.7
				c24.1-34.2,62.2-105.1,161.6-70.6c98.7,34.3,120.9,115.6,77.3,132.1c-17.3,6.5-51.6,20.3-192.4-36.9c0,0,119.7,36.3,166.8,17.7
				c49.6-19.6-19.4-72.6-64-81.9C348,34.5,307.5,30.3,280,66.9c-27.6,36.7-37.5,63.7-79.4,76.8C167.2,154.3,97.5,154.6,30,92.7
				C-50.7,18.6,48.2-45.1,199.6,53.2L199.6,53.2z"/>
		</defs>
		<defs>
			<rect id="SVGID_2_" x="1.1" y="-455.4" width="486.7" height="605.2"/>
		</defs>
		<clipPath id="SVGID_3_">
			<use xlink:href="#SVGID_1_"  style="overflow:visible;"/>
		</clipPath>
		<clipPath id="SVGID_4_" class="st0">
			<use xlink:href="#SVGID_2_"  style="overflow:visible;"/>
		</clipPath>
		<g style="clip-path:url(#SVGID_4_);">
			
				<image style="overflow:visible;" width="637" height="197" xlink:href="3854B5E1.jpg"  transform="matrix(0.7641 0 0 0.7641 1.1484 -0.7329)">
			</image>
		</g>
	</g>
</g>
</svg>
